# MagicaVoxel @ Ephtracy

# group
o 

# material
mtllib nozzles.mtl
usemtl palette

# normals
vn -1 0 0
vn 1 0 0
vn 0 0 1
vn 0 0 -1
vn 0 -1 0
vn 0 1 0

# texcoords
vt 0.958984 0.5
vt 0.966797 0.5
vt 0.970703 0.5
vt 0.986328 0.5
vt 0.994141 0.5

# verts
v -0.3 0.3 0.8
v -0.3 0.3 -0.8
v -0.3 0.5 0.8
v -0.3 0.5 -0.8
v -0.2 0 0.8
v -0.2 0 -0.8
v -0.2 0.3 0.8
v -0.2 0.3 -0.8
v 0.2 0 0.8
v 0.2 0 -0.8
v 0.2 0.3 0.8
v 0.2 0.3 -0.8
v 0.3 0.3 0.8
v 0.3 0.3 -0.8
v 0.3 0.5 0.8
v 0.3 0.5 -0.8
v -0.3 0.3 0.8
v -0.3 0.5 0.8
v -0.2 0 0.8
v -0.2 0.3 0.8
v -0.2 0.4 0.8
v -0.2 0.5 0.8
v -0.1 0 0.8
v -0.1 0.1 0.8
v -0.1 0.2 0.8
v -0.1 0.3 0.8
v -0.1 0.4 0.8
v -0.1 0.5 0.8
v 0 0.1 0.8
v 0 0.2 0.8
v 0.1 0 0.8
v 0.1 0.2 0.8
v 0.1 0.3 0.8
v 0.1 0.4 0.8
v 0.1 0.5 0.8
v 0.2 0 0.8
v 0.2 0.3 0.8
v 0.2 0.4 0.8
v 0.2 0.5 0.8
v 0.3 0.3 0.8
v 0.3 0.5 0.8
v -0.3 0.3 -0.8
v -0.3 0.5 -0.8
v -0.2 0 -0.8
v -0.2 0.3 -0.8
v -0.2 0.4 -0.8
v -0.2 0.5 -0.8
v -0.1 0 -0.8
v -0.1 0.1 -0.8
v -0.1 0.2 -0.8
v -0.1 0.3 -0.8
v -0.1 0.4 -0.8
v -0.1 0.5 -0.8
v 0 0.1 -0.8
v 0 0.2 -0.8
v 0.1 0 -0.8
v 0.1 0.2 -0.8
v 0.1 0.3 -0.8
v 0.1 0.4 -0.8
v 0.1 0.5 -0.8
v 0.2 0 -0.8
v 0.2 0.3 -0.8
v 0.2 0.4 -0.8
v 0.2 0.5 -0.8
v 0.3 0.3 -0.8
v 0.3 0.5 -0.8
v -0.2 0 0.8
v -0.1 0 0.8
v 0.1 0 0.8
v 0.2 0 0.8
v -0.2 0 -0.8
v -0.1 0 -0.8
v 0.1 0 -0.8
v 0.2 0 -0.8
v -0.3 0.3 0.8
v -0.2 0.3 0.8
v 0.2 0.3 0.8
v 0.3 0.3 0.8
v -0.3 0.3 -0.8
v -0.2 0.3 -0.8
v 0.2 0.3 -0.8
v 0.3 0.3 -0.8
v -0.3 0.5 0.8
v -0.2 0.5 0.8
v -0.1 0.5 0.8
v 0.1 0.5 0.8
v 0.2 0.5 0.8
v 0.3 0.5 0.8
v -0.3 0.5 -0.8
v -0.2 0.5 -0.8
v -0.1 0.5 -0.8
v 0.1 0.5 -0.8
v 0.2 0.5 -0.8
v 0.3 0.5 -0.8

# faces
f 3/3/1 2/3/1 1/3/1
f 4/3/1 2/3/1 3/3/1
f 7/3/1 6/3/1 5/3/1
f 8/3/1 6/3/1 7/3/1
f 9/3/2 10/3/2 11/3/2
f 11/3/2 10/3/2 12/3/2
f 13/3/2 14/3/2 15/3/2
f 15/3/2 14/3/2 16/3/2
f 20/3/3 18/3/3 17/3/3
f 21/3/3 18/3/3 20/3/3
f 22/3/3 18/3/3 21/3/3
f 23/3/3 20/3/3 19/3/3
f 23/3/3 21/3/3 20/3/3
f 24/3/3 21/3/3 23/3/3
f 25/3/3 21/3/3 24/3/3
f 26/3/3 21/3/3 25/3/3
f 27/4/3 22/4/3 21/4/3
f 27/3/3 21/3/3 26/3/3
f 28/4/3 22/4/3 27/4/3
f 29/2/3 24/2/3 23/2/3
f 29/1/3 25/1/3 24/1/3
f 30/4/3 26/4/3 25/4/3
f 30/1/3 25/1/3 29/1/3
f 31/2/3 29/2/3 23/2/3
f 31/2/3 30/2/3 29/2/3
f 32/4/3 26/4/3 30/4/3
f 32/2/3 30/2/3 31/2/3
f 33/3/3 27/3/3 26/3/3
f 33/4/3 26/4/3 32/4/3
f 34/5/3 28/5/3 27/5/3
f 34/3/3 27/3/3 33/3/3
f 35/5/3 28/5/3 34/5/3
f 36/3/3 33/3/3 32/3/3
f 36/3/3 32/3/3 31/3/3
f 36/3/3 34/3/3 33/3/3
f 37/3/3 34/3/3 36/3/3
f 38/4/3 35/4/3 34/4/3
f 38/3/3 34/3/3 37/3/3
f 39/4/3 35/4/3 38/4/3
f 40/3/3 38/3/3 37/3/3
f 40/3/3 39/3/3 38/3/3
f 41/3/3 39/3/3 40/3/3
f 42/3/4 43/3/4 45/3/4
f 45/3/4 43/3/4 46/3/4
f 46/3/4 43/3/4 47/3/4
f 44/3/4 45/3/4 48/3/4
f 45/3/4 46/3/4 48/3/4
f 48/3/4 46/3/4 49/3/4
f 49/3/4 46/3/4 50/3/4
f 50/3/4 46/3/4 51/3/4
f 46/4/4 47/4/4 52/4/4
f 51/3/4 46/3/4 52/3/4
f 52/4/4 47/4/4 53/4/4
f 48/2/4 49/2/4 54/2/4
f 49/1/4 50/1/4 54/1/4
f 50/4/4 51/4/4 55/4/4
f 54/1/4 50/1/4 55/1/4
f 48/2/4 54/2/4 56/2/4
f 54/2/4 55/2/4 56/2/4
f 55/4/4 51/4/4 57/4/4
f 56/2/4 55/2/4 57/2/4
f 51/3/4 52/3/4 58/3/4
f 57/4/4 51/4/4 58/4/4
f 52/5/4 53/5/4 59/5/4
f 58/3/4 52/3/4 59/3/4
f 59/5/4 53/5/4 60/5/4
f 57/3/4 58/3/4 61/3/4
f 56/3/4 57/3/4 61/3/4
f 58/3/4 59/3/4 61/3/4
f 61/3/4 59/3/4 62/3/4
f 59/4/4 60/4/4 63/4/4
f 62/3/4 59/3/4 63/3/4
f 63/4/4 60/4/4 64/4/4
f 62/3/4 63/3/4 65/3/4
f 63/3/4 64/3/4 65/3/4
f 65/3/4 64/3/4 66/3/4
f 71/3/5 68/3/5 67/3/5
f 72/2/5 69/2/5 68/2/5
f 72/3/5 68/3/5 71/3/5
f 73/3/5 70/3/5 69/3/5
f 73/2/5 69/2/5 72/2/5
f 74/3/5 70/3/5 73/3/5
f 79/3/5 76/3/5 75/3/5
f 80/3/5 76/3/5 79/3/5
f 81/3/5 78/3/5 77/3/5
f 82/3/5 78/3/5 81/3/5
f 83/3/6 84/3/6 89/3/6
f 84/4/6 85/4/6 90/4/6
f 89/3/6 84/3/6 90/3/6
f 85/5/6 86/5/6 91/5/6
f 90/4/6 85/4/6 91/4/6
f 86/4/6 87/4/6 92/4/6
f 91/5/6 86/5/6 92/5/6
f 87/3/6 88/3/6 93/3/6
f 92/4/6 87/4/6 93/4/6
f 93/3/6 88/3/6 94/3/6
